<svg width="103" height="33" viewBox="0 0 103 33" fill="none" xmlns="http://www.w3.org/2000/svg">
<g clip-path="url(#clip0_4776_3929)">
<path d="M1.23999 23V9H5.87999V19.34H10.32V9H14.96V23H1.23999ZM12.48 25.74V21.98L13.46 23H10.32V19.34H16.8V25.74H12.48ZM18.3884 23V9H31.9284V23H27.2884V11.66L28.3084 12.66H22.0084L23.0284 11.66V23H18.3884ZM34.4041 23V9H38.2841L43.8841 18.14H41.8441L47.2841 9H51.1641L51.2041 23H46.9041L46.8641 15.48H47.5441L43.8241 21.74H41.7441L37.8641 15.48H38.7041V23H34.4041Z" fill="#DD3E24"/>
<path d="M59.5581 23.0002V9.00018H64.2781V19.3402H70.5981V23.0002H59.5581ZM71.9018 23.0002V9.00018H75.7818L81.3818 18.1402H79.3418L84.7818 9.00018H88.6618L88.7018 23.0002H84.4018L84.3618 15.4802H85.0418L81.3218 21.7402H79.2418L75.3618 15.4802H76.2018V23.0002H71.9018ZM96.2039 23.3202C95.0305 23.3202 93.8972 23.1869 92.8039 22.9202C91.7105 22.6535 90.8105 22.3069 90.1039 21.8802L91.6239 18.4402C92.2905 18.8269 93.0305 19.1402 93.8439 19.3802C94.6705 19.6069 95.4705 19.7202 96.2439 19.7202C96.6972 19.7202 97.0505 19.6935 97.3039 19.6402C97.5705 19.5735 97.7639 19.4869 97.8839 19.3802C98.0039 19.2602 98.0639 19.1202 98.0639 18.9602C98.0639 18.7069 97.9239 18.5069 97.6439 18.3602C97.3639 18.2135 96.9905 18.0935 96.5239 18.0002C96.0705 17.8935 95.5705 17.7869 95.0239 17.6802C94.4772 17.5602 93.9239 17.4069 93.3639 17.2202C92.8172 17.0335 92.3105 16.7869 91.8439 16.4802C91.3905 16.1735 91.0239 15.7735 90.7439 15.2802C90.4639 14.7735 90.3239 14.1469 90.3239 13.4002C90.3239 12.5335 90.5639 11.7469 91.0439 11.0402C91.5372 10.3202 92.2639 9.74685 93.2239 9.32018C94.1972 8.89351 95.4039 8.68018 96.8439 8.68018C97.7905 8.68018 98.7239 8.78018 99.6439 8.98018C100.564 9.18018 101.39 9.48685 102.124 9.90018L100.704 13.3202C100.01 12.9735 99.3372 12.7135 98.6839 12.5402C98.0439 12.3669 97.4172 12.2802 96.8039 12.2802C96.3505 12.2802 95.9905 12.3202 95.7238 12.4002C95.4572 12.4802 95.2639 12.5869 95.1439 12.7202C95.0372 12.8535 94.9838 13.0002 94.9838 13.1602C94.9838 13.4002 95.1239 13.5935 95.4039 13.7402C95.6839 13.8735 96.0505 13.9869 96.5039 14.0802C96.9705 14.1735 97.4772 14.2735 98.0239 14.3802C98.5839 14.4869 99.1372 14.6335 99.6839 14.8202C100.23 15.0069 100.73 15.2535 101.184 15.5602C101.65 15.8669 102.024 16.2669 102.304 16.7602C102.584 17.2535 102.724 17.8669 102.724 18.6002C102.724 19.4535 102.477 20.2402 101.984 20.9602C101.504 21.6669 100.784 22.2402 99.8239 22.6802C98.8639 23.1069 97.6572 23.3202 96.2039 23.3202Z" fill="#1B1D1C"/>
</g>
<defs>
<clipPath id="clip0_4776_3929">
<rect width="103" height="33" fill="white"/>
</clipPath>
</defs>
</svg>
