<svg width="103" height="33" viewBox="0 0 103 33" fill="none" xmlns="http://www.w3.org/2000/svg">
<rect width="103" height="33" fill="white"/>
<path d="M1.24 23V9H5.88V19.34H10.32V9H14.96V23H1.24ZM12.48 25.74V21.98L13.46 23H10.32V19.34H16.8V25.74H12.48ZM18.3884 23V9H31.9284V23H27.2884V11.66L28.3084 12.66H22.0084L23.0284 11.66V23H18.3884ZM34.4041 23V9H38.2841L43.8841 18.14H41.8441L47.2841 9H51.1641L51.2041 23H46.9041L46.8641 15.48H47.5441L43.8241 21.74H41.7441L37.8641 15.48H38.7041V23H34.4041Z" fill="#DD3E24"/>
<path d="M59.558 23V9H64.278V19.34H70.598V23H59.558ZM71.9017 23V9H75.7817L81.3817 18.14H79.3417L84.7817 9H88.6617L88.7017 23H84.4017L84.3617 15.48H85.0417L81.3217 21.74H79.2417L75.3617 15.48H76.2017V23H71.9017ZM96.2038 23.32C95.0304 23.32 93.8971 23.1867 92.8038 22.92C91.7104 22.6533 90.8104 22.3067 90.1038 21.88L91.6238 18.44C92.2904 18.8267 93.0304 19.14 93.8438 19.38C94.6704 19.6067 95.4704 19.72 96.2438 19.72C96.6971 19.72 97.0504 19.6933 97.3038 19.64C97.5704 19.5733 97.7638 19.4867 97.8838 19.38C98.0038 19.26 98.0638 19.12 98.0638 18.96C98.0638 18.7067 97.9238 18.5067 97.6438 18.36C97.3638 18.2133 96.9904 18.0933 96.5238 18C96.0704 17.8933 95.5704 17.7867 95.0238 17.68C94.4771 17.56 93.9238 17.4067 93.3638 17.22C92.8171 17.0333 92.3104 16.7867 91.8438 16.48C91.3904 16.1733 91.0238 15.7733 90.7438 15.28C90.4638 14.7733 90.3238 14.1467 90.3238 13.4C90.3238 12.5333 90.5638 11.7467 91.0438 11.04C91.5371 10.32 92.2638 9.74667 93.2238 9.32C94.1971 8.89333 95.4038 8.68 96.8438 8.68C97.7904 8.68 98.7238 8.78 99.6438 8.98C100.564 9.18 101.39 9.48667 102.124 9.9L100.704 13.32C100.01 12.9733 99.3371 12.7133 98.6838 12.54C98.0438 12.3667 97.4171 12.28 96.8038 12.28C96.3504 12.28 95.9904 12.32 95.7237 12.4C95.4571 12.48 95.2638 12.5867 95.1438 12.72C95.0371 12.8533 94.9837 13 94.9837 13.16C94.9837 13.4 95.1238 13.5933 95.4038 13.74C95.6838 13.8733 96.0504 13.9867 96.5038 14.08C96.9704 14.1733 97.4771 14.2733 98.0238 14.38C98.5838 14.4867 99.1371 14.6333 99.6838 14.82C100.23 15.0067 100.73 15.2533 101.184 15.56C101.65 15.8667 102.024 16.2667 102.304 16.76C102.584 17.2533 102.724 17.8667 102.724 18.6C102.724 19.4533 102.477 20.24 101.984 20.96C101.504 21.6667 100.784 22.24 99.8238 22.68C98.8638 23.1067 97.6571 23.32 96.2038 23.32Z" fill="#1B1D1C"/>
</svg>
